<svg xmlns:mydata="http://www.w3.org/2000/svg" mydata:contrastcolor="002d2b" mydata:template="Contrast" mydata:presentation="2.5" mydata:layouttype="undefined" mydata:specialfontid="undefined" mydata:id1="000" mydata:id2="000" mydata:companyname="Hi NPC" mydata:companytagline="" version="1.1" xmlns="http://www.w3.org/2000/svg" xmlns:xlink="http://www.w3.org/1999/xlink" viewBox="0 0 550 470"><defs><linearGradient x1="145.99995" y1="235" x2="404.00005" y2="235" gradientUnits="userSpaceOnUse" id="color-17012331555"><stop offset="0" stop-color="#00968f"></stop><stop offset="1" stop-color="#00fff4"></stop></linearGradient></defs><g fill="url(#color-17012331555)" fill-rule="evenodd" stroke="none" stroke-width="1" stroke-linecap="butt" stroke-linejoin="miter" stroke-miterlimit="10" stroke-dasharray="" stroke-dashoffset="0" font-family="none" font-weight="none" font-size="none" text-anchor="none" style="mix-blend-mode: normal"><g data-paper-data="{&quot;isGlobalGroup&quot;:true,&quot;bounds&quot;:{&quot;x&quot;:145.99995303788458,&quot;y&quot;:106,&quot;width&quot;:258.0000939242309,&quot;height&quot;:258}}"><g data-paper-data="{&quot;selectedEffects&quot;:{&quot;container&quot;:&quot;&quot;,&quot;transformation&quot;:&quot;&quot;,&quot;pattern&quot;:&quot;&quot;},&quot;initialText&quot;:&quot;H&quot;,&quot;isIcon&quot;:&quot;true&quot;,&quot;iconType&quot;:&quot;initial&quot;,&quot;iconStyle&quot;:&quot;standalone&quot;,&quot;rawInitialId&quot;:540,&quot;disableIconEffects&quot;:&quot;true&quot;,&quot;monogramSpecial&quot;:&quot;half-moon&quot;,&quot;bounds&quot;:{&quot;x&quot;:203.00445191814057,&quot;y&quot;:163.61734977128722,&quot;width&quot;:143.9927875524434,&quot;height&quot;:142.76483083627144},&quot;fillRule&quot;:&quot;evenodd&quot;,&quot;suitableAsStandaloneIcon&quot;:true}"><g data-paper-data="{&quot;isPathIcon&quot;:true}"><path d="M274.38687,163.61735c-39.42274,0 -71.38242,31.95865 -71.38242,71.38242c0,39.42274 31.95967,71.38242 71.38242,71.38242c16.62559,0 31.9238,-5.68366 44.05782,-15.21416c-9.24043,5.1445 -19.88203,8.07602 -31.20835,8.07602c-35.48159,0 -64.24428,-28.76371 -64.24428,-64.24428c0,-35.48159 28.76268,-64.24428 64.24428,-64.24428c11.32631,0 21.96792,2.93049 31.20835,8.07602c-12.13402,-9.5305 -27.43223,-15.21416 -44.05782,-15.21416zM289.8911,292.1059c31.53942,0 57.10614,-25.56774 57.10614,-57.10614c0,-31.5384 -25.56671,-57.10614 -57.10614,-57.10614c-13.30047,0 -25.53904,4.54692 -35.24584,12.17092c7.39234,-4.1154 15.90604,-6.46061 24.96709,-6.46061c28.38446,0 51.39583,23.01138 51.39583,51.39583c0,28.38446 -23.01138,51.39481 -51.39583,51.39481c-9.06105,0 -17.57475,-2.34419 -24.96709,-6.46061c9.7068,7.62399 21.94537,12.17194 35.24584,12.17194z"></path><path d="M285.67833,203.72069c-0.43768,0 -0.77798,-0.3895 -0.77798,-0.779v-0.09635l0.0492,-0.29213l0.2911,0.04818c0.3895,0 0.7298,0.3895 0.7298,0.779v0.38848zM289.32735,212.37892c0,-3.79355 2.33496,-7.34519 6.17771,-8.7556l2.91922,-1.07011l1.11828,2.96739c0.3895,1.07011 0.53505,2.14021 0.53505,3.21032c0,3.79457 -2.33496,7.39439 -6.08033,8.75662l-2.96739,1.11828l-1.11931,-2.96739c-0.38848,-1.07011 -0.58323,-2.18839 -0.58323,-3.25952zM305.08784,203.62332c0,0.19475 -0.04818,0.3403 -0.09738,0.53505l-0.14555,0.48688l-0.43768,-0.14658c-0.48688,-0.09738 -0.77798,-0.53505 -0.77798,-1.02091c0,-0.19475 0,-0.29213 0.04818,-0.48688l0.24293,-0.43768l0.3895,0.09738c0.43768,0.09738 0.77798,0.53505 0.77798,0.97273zM294.04545,203.33119c0,0.63243 -0.58323,1.11931 -1.26486,1.11931h-0.24293l-0.53505,-0.0492l-0.04818,-0.48585v-0.09738c0,-0.63243 0.58323,-1.11931 1.31303,-1.11931h0.24293l0.53505,0.0492zM289.18077,202.84534c0.29213,0 0.68163,0.04818 0.97376,0.09635l1.26486,0.34133l-0.29213,1.26486c-0.43768,1.79991 -2.04284,2.96739 -3.79457,2.96739c-0.29213,0 -0.58425,0 -0.87535,-0.09738l-1.31406,-0.3403l0.29213,-1.31406c0.3895,-1.75071 1.99466,-2.91819 3.74537,-2.91819zM245.59446,204.83898l-0.43768,0.09738l-0.14555,-0.43768c-0.0492,-0.14555 -0.09738,-0.38848 -0.09738,-0.53505c0,-0.53505 0.29213,-0.92456 0.77798,-1.02193l0.43768,-0.04818l0.14658,0.3895c0.09738,0.19475 0.14555,0.3403 0.14555,0.53505c0,0.48585 -0.3403,0.87535 -0.82718,1.02091zM250.45914,205.95828l1.11931,-2.96739l2.96739,1.07011c3.79457,1.41041 6.12953,4.96205 6.12953,8.75662c0,1.07011 -0.19475,2.18839 -0.58425,3.25849l-1.11931,3.01659l-2.96637,-1.11931c-3.79457,-1.36223 -6.12953,-4.96205 -6.12953,-8.7556c0,-1.07011 0.14555,-2.18941 0.58323,-3.25952zM264.46891,203.81807c0,-0.43768 0.34133,-0.7298 0.7298,-0.779h0.29213v0.34133c0,0.38848 -0.3403,0.77798 -0.7298,0.77798l-0.24293,0.04818l-0.0492,-0.24293zM247.29699,209.41255l-1.21566,0.53505l-0.48688,-1.26486c-0.24293,-0.48688 -0.2911,-0.97376 -0.2911,-1.50881c0,-1.50778 0.92353,-2.96739 2.43234,-3.55062l1.16748,-0.53505l0.53505,1.26486c0.19373,0.43768 0.2911,0.97273 0.2911,1.45961c0,1.55596 -0.92353,3.01557 -2.43234,3.59982zM259.36131,204.83898l-0.29213,-1.21566l1.21668,-0.3403c0.29213,-0.09738 0.63243,-0.14658 0.97273,-0.14658c1.75173,0 3.35689,1.21668 3.74537,2.96739l0.29213,1.31406l-1.21566,0.2911c-0.34133,0.09738 -0.68163,0.14658 -0.97273,0.14658c-1.75173,0 -3.30872,-1.21668 -3.7464,-3.01659zM256.73422,203.18564c0.7298,0 1.31406,0.43768 1.31406,1.16748v0.48585l-0.58425,0.14658h-0.14555c-0.77798,0 -1.36223,-0.53505 -1.36223,-1.26486v-0.48688l0.53505,-0.04818zM305.37996,207.85557c0,0.19475 0,0.43768 -0.04818,0.7298l-0.29213,1.26486l-1.26486,-0.19475c-1.89729,-0.3895 -3.21032,-2.04284 -3.21032,-3.89195c0,-0.24293 0,-0.43768 0.04818,-0.7298l0.19475,-1.26486l1.36223,0.19475c1.84809,0.3403 3.21032,1.99466 3.21032,3.89195zM285.24065,210.48266c0,-1.41143 1.02193,-2.62709 2.48154,-2.77367l0.87535,-0.09635l0.09738,0.92353v0.29213c0,1.36223 -0.97273,2.57789 -2.38416,2.72446l-0.97273,0.09738l-0.09738,-0.92456zM261.01567,209.65548l-0.19475,-0.92456l0.87535,-0.19475c0.24395,-0.04818 0.43768,-0.09738 0.63243,-0.09738c1.26486,0 2.28679,0.82718 2.67526,2.09204l0.24395,0.87535l-0.92456,0.24395c-0.24293,0.04818 -0.43768,0.09738 -0.63243,0.09738c-1.26486,0 -2.33496,-0.82718 -2.67526,-2.09204zM304.26168,212.67104c-1.21668,0 -2.18941,-0.92353 -2.18941,-2.14021v-0.77798h0.77798c1.11931,0 2.14021,0.97273 2.14021,2.18839v0.7298zM245.93579,212.08781c0,-1.21668 0.97273,-2.14021 2.23759,-2.14021h0.6806v0.72878c0,1.16748 -1.02193,2.14124 -2.18941,2.14124h-0.72878zM302.21782,213.9851c0,0.53505 -0.19475,0.97273 -0.48585,1.41041l-0.48688,0.63243l-0.63243,-0.43768c-0.58323,-0.48688 -0.92456,-1.16748 -0.92456,-1.89729c0,-0.48688 0.09738,-0.97273 0.4387,-1.41041l0.48585,-0.63243l0.63243,0.43768c0.58425,0.43768 0.97273,1.16748 0.97273,1.89729zM249.38903,215.97874l-0.6806,0.53608l-0.43768,-0.63243c-0.29213,-0.4387 -0.4387,-0.92456 -0.4387,-1.41143c0,-0.7298 0.34133,-1.45961 0.97376,-1.94546l0.63243,-0.43768l0.48585,0.6806c0.29213,0.3895 0.3895,0.87535 0.3895,1.36223c0,0.7298 -0.29213,1.45961 -0.92456,1.84809zM286.60288,212.76842c1.50778,0 2.87002,1.11931 3.06477,2.77264l0.14555,1.02193l-1.07011,0.09738h-0.2911c-1.55698,0 -2.91922,-1.11931 -3.11397,-2.77264l-0.09738,-1.02193l1.07011,-0.09738zM262.03657,217.00067l-1.07011,-0.14555l0.09738,-1.02193c0.19475,-1.60516 1.55698,-2.72446 3.11397,-2.72446h0.3403l0.97273,0.0492l-0.04818,1.07011c-0.19475,1.60516 -1.55698,2.77264 -3.11397,2.77264zM304.99046,214.52015c0,0.2911 -0.09635,0.58323 -0.3403,0.82615l-0.2911,0.3895l-0.3895,-0.29213c-0.3403,-0.24293 -0.53505,-0.6806 -0.53505,-1.11828c0,-0.29213 0.09738,-0.58425 0.29213,-0.82718l0.2911,-0.3895l0.3895,0.34133c0.3895,0.24293 0.58323,0.63243 0.58323,1.07011zM246.90852,215.73581l-0.3895,0.29213l-0.24293,-0.3895c-0.19475,-0.24293 -0.29213,-0.53505 -0.29213,-0.82718c0,-0.38848 0.14555,-0.82615 0.48688,-1.07011l0.38848,-0.2911l0.29213,0.3403c0.24293,0.24293 0.3403,0.53505 0.3403,0.82718c0,0.43768 -0.24293,0.87535 -0.58323,1.11828zM305.13704,216.27086c0.19475,0.24395 0.24293,0.48688 0.24293,0.779c0,0.6806 -0.3403,1.26486 -1.07011,1.55596l-0.6806,0.29213l-0.3895,-0.48688c-0.14555,-0.2911 -0.19475,-0.58323 -0.19475,-0.82615c0,-0.63243 0.3895,-1.26486 1.11931,-1.60618l0.6806,-0.24293zM247.15144,218.50845l-0.3403,0.58425l-0.63243,-0.29213c-0.7298,-0.3403 -1.11931,-0.97273 -1.11931,-1.60516c0,-0.24293 0.0492,-0.48688 0.24395,-0.77798l0.3403,-0.53505l0.63243,0.2911c0.7298,0.34133 1.16748,0.92456 1.16748,1.55698c0,0.24293 -0.09738,0.53505 -0.29213,0.77798zM299.20225,215.97874c0.97273,0 1.94546,0.48688 2.52971,1.41143l0.53505,0.92456l-0.87535,0.48585c-0.48688,0.29213 -1.02193,0.43768 -1.55698,0.43768c-1.02193,0 -1.94649,-0.48585 -2.52971,-1.45961l-0.48688,-0.82615l0.82718,-0.53505c0.48688,-0.29213 1.02193,-0.4387 1.55698,-0.4387zM248.61105,219.23825l-0.82718,-0.43768l0.48688,-0.92456c0.58323,-0.92353 1.55596,-1.45858 2.52869,-1.45858c0.53608,0 1.07113,0.19373 1.55698,0.43768l0.82718,0.53505l-0.43768,0.87535c-0.63243,0.92456 -1.60516,1.41041 -2.57789,1.41041c-0.53608,0 -1.07113,-0.14555 -1.55698,-0.43768zM287.81957,217.77865c1.11828,0 2.18839,0.53608 2.82082,1.50881l0.63243,0.92353l-0.92456,0.68163c-0.58323,0.38848 -1.26383,0.53505 -1.89626,0.53505c-1.07113,0 -2.14124,-0.48688 -2.82184,-1.45961l-0.63243,-0.97273l0.97273,-0.63243c0.53505,-0.3895 1.21668,-0.58425 1.84911,-0.58425zM260.14031,221.03816l-0.97376,-0.63243l0.68163,-0.92456c0.63243,-1.02091 1.65333,-1.50778 2.77264,-1.50778c0.63243,0 1.31303,0.14658 1.89729,0.53505l0.97273,0.68163l-0.6806,0.92353c-0.68163,0.97376 -1.70253,1.50881 -2.82184,1.50881c-0.63243,0 -1.26486,-0.19475 -1.84809,-0.58425zM295.26213,218.16815c0.7298,0 1.50778,0.29213 2.09101,0.77798l0.92456,0.68163l-0.7298,0.92456c-0.63243,0.72878 -1.55596,1.11828 -2.48051,1.11828c-0.77798,0 -1.50778,-0.24293 -2.14021,-0.77798l-0.82718,-0.68163l0.6806,-0.87535c0.63243,-0.77798 1.55698,-1.16748 2.48154,-1.16748zM252.4538,220.98999l-0.7298,-0.87638l0.87535,-0.6806c0.63243,-0.53505 1.31406,-0.77798 2.04386,-0.77798c0.97273,0 1.84809,0.43768 2.52971,1.16748l0.77798,0.82718l-0.92456,0.6806c-0.58323,0.53505 -1.36223,0.77798 -2.09204,0.77798c-0.92353,0 -1.79991,-0.38848 -2.48051,-1.11828zM305.03966,220.94079c0,2.04386 -1.50778,3.79457 -3.55164,4.0375l-1.36121,0.19475l-0.14658,-1.41041c0,-0.14658 -0.04818,-0.29213 -0.04818,-0.43768c0,-2.04386 1.50778,-3.79457 3.55062,-4.0375l1.36223,-0.14658l0.19475,1.36223zM250.02146,224.24848l-0.19475,1.36223l-1.31303,-0.14555c-2.09204,-0.29213 -3.50244,-2.04284 -3.50244,-4.0867v-0.43768l0.14555,-1.36223l1.36223,0.19475c1.99466,0.24293 3.55164,1.89729 3.55164,3.89195c0,0.14555 0,0.3895 -0.0492,0.58323zM294.09465,225.65991c0,-1.84911 1.11828,-3.55164 2.96739,-4.0867l1.41041,-0.48585l0.43768,1.41041c0.09738,0.43768 0.14658,0.87535 0.14658,1.26486c0,1.84809 -1.11931,3.50244 -3.01659,4.13487l-1.36223,0.43768l-0.43768,-1.41041c-0.14555,-0.43768 -0.14555,-0.82718 -0.14555,-1.26486zM286.89501,222.30302c0,0.87535 -0.63243,1.65436 -1.55698,1.79991l-0.63243,0.09738l-0.09738,-0.63243c0,-0.09738 -0.04818,-0.19475 -0.04818,-0.29213c0,-0.87535 0.6806,-1.65333 1.55596,-1.79991l0.63243,-0.09738l0.09738,0.63243c0,0.0492 0.0492,0.19475 0.0492,0.29213zM251.09156,222.98465l0.43768,-1.41143l1.41143,0.43768c1.79991,0.58425 3.01557,2.23759 3.01557,4.0867c0,0.43768 -0.04818,0.82718 -0.19475,1.26486l-0.43768,1.41041l-1.36223,-0.43768c-1.84809,-0.58425 -3.06477,-2.23759 -3.06477,-4.0867c0,-0.43768 0.09738,-0.82615 0.19475,-1.26383zM265.39347,224.05476l-0.09738,0.63243l-0.63243,-0.14658c-0.92456,-0.14555 -1.55596,-0.92456 -1.55596,-1.79991c0,-0.04818 0.04818,-0.19475 0.04818,-0.29213l0.14555,-0.58323l0.58425,0.09738c0.87535,0.14555 1.55698,0.92456 1.55698,1.79991c0,0.04818 -0.0492,0.19475 -0.0492,0.29213zM292.82979,225.36779c0,3.16214 -2.28679,5.88661 -5.44893,6.42166l-2.23759,0.38848l-0.3403,-2.18839c-0.04818,-0.3895 -0.09738,-0.7298 -0.09738,-1.07113c0,-3.16112 2.33496,-5.93376 5.49711,-6.46984l2.18941,-0.3403l0.3403,2.18941c0.04818,0.3895 0.09738,0.7298 0.09738,1.07011zM265.19872,230.47539l-0.3403,2.14021l-2.18941,-0.38848c-3.21032,-0.48688 -5.49608,-3.16214 -5.49608,-6.37246c0,-0.34133 0.04818,-0.68163 0.09738,-1.07113l0.3403,-2.23759l2.18839,0.34133c3.21134,0.53505 5.49711,3.35587 5.49711,6.51801c0,0.3403 -0.04818,0.6806 -0.09738,1.07011zM302.21782,225.31961c0.58425,0 1.16748,0.19373 1.70253,0.48585l0.92456,0.53505l-0.53505,0.92456c-0.63243,1.02193 -1.70253,1.50778 -2.82184,1.50778c-0.53505,0 -1.07011,-0.09738 -1.60516,-0.43768l-0.87535,-0.53505l0.53505,-0.92456c0.58425,-1.02091 1.60516,-1.55596 2.67526,-1.55596zM245.69184,227.70275l-0.53505,-0.92456l0.92456,-0.53505c0.53505,-0.3403 1.07011,-0.48585 1.65436,-0.48585c1.07011,0 2.14021,0.53505 2.72344,1.55596l0.58425,0.92456l-0.92456,0.53505c-0.53505,0.29213 -1.11931,0.48688 -1.65436,0.48688c-1.07011,0 -2.14021,-0.53505 -2.77264,-1.55698zM268.06873,229.40528c-1.26486,0 -2.48051,-0.92456 -2.67526,-2.23759l-0.19475,-0.92456l0.92456,-0.14555c0.14555,-0.0492 0.29213,-0.0492 0.43768,-0.0492c1.31303,0 2.43234,0.87638 2.72446,2.23861l0.14555,0.87535l-0.87535,0.19475c-0.19475,0.04818 -0.29213,0.04818 -0.48688,0.04818zM274.63594,233.73491l-1.45961,-0.43768c-1.94546,-0.68163 -3.11294,-2.43234 -3.11294,-4.28145c0,-0.43768 0.0492,-0.92353 0.19475,-1.36121l0.53505,-1.41143l1.41041,0.3895c1.89729,0.63243 3.11397,2.38314 3.11397,4.23225c0,0.48585 -0.0492,0.97273 -0.24395,1.41041zM279.84092,226.92477c0,0.82615 -0.6806,1.45858 -1.50778,1.45858h-0.48585v-0.48585c0,-0.82718 0.6806,-1.45961 1.45858,-1.45961h0.53505zM277.26303,227.65458c0,0.14555 -0.04818,0.3403 -0.09738,0.48585l-0.14555,0.43768l-0.43768,-0.14555c-0.48688,-0.0492 -0.82718,-0.43768 -0.82718,-0.97273c0,-0.19475 0.04818,-0.34133 0.14555,-0.53505l0.19475,-0.3895l0.3403,0.09738c0.53505,0.09738 0.82718,0.53505 0.82718,1.02193zM283.68469,226.97295l0.58323,0.53505l-0.43768,0.58425c-0.48688,0.58323 -1.11931,0.87535 -1.75173,0.87535c-0.53505,0 -1.07011,-0.19475 -1.50778,-0.53505l-0.58323,-0.43768l0.43768,-0.63243c0.48585,-0.53505 1.16748,-0.82718 1.84809,-0.82718c0.48688,0 0.97273,0.09738 1.41143,0.43768zM297.59709,228.87023c2.23759,0 4.3778,1.26486 5.35053,3.35689l0.87638,1.79991l-1.84911,0.87535c-0.82718,0.3895 -1.60516,0.53505 -2.48051,0.53505c-2.18941,0 -4.32962,-1.21668 -5.35155,-3.35689l-0.82718,-1.84809l1.84911,-0.82718c0.77798,-0.3403 1.60516,-0.53505 2.43234,-0.53505zM280.61993,231.25439c0,2.04284 -1.36223,3.55062 -3.30872,3.55062h-1.31303l-0.29213,-1.45961c0,-0.2911 -0.04818,-0.58323 -0.04818,-0.82718c0,-2.04284 1.36223,-3.50244 3.30769,-3.50244h1.36223l0.24293,1.45961c0.0492,0.29213 0.0492,0.53505 0.0492,0.779zM248.0268,235.38927l-1.84809,-0.92456l0.87535,-1.79991c0.97273,-2.09204 3.11397,-3.30769 5.30235,-3.30769c0.82718,0 1.70253,0.14555 2.52971,0.53505l1.79991,0.87535l-0.82718,1.79991c-1.02091,2.09204 -3.16214,3.35689 -5.39973,3.35689c-0.82718,0 -1.60516,-0.14658 -2.43234,-0.53505zM303.92035,231.15702c-0.6806,0 -1.36121,-0.4387 -1.45858,-1.11931l-0.14658,-0.48688l0.53505,-0.14555h0.3895c0.6806,0 1.26486,0.3895 1.41041,1.07011l0.14658,0.53505l-0.48688,0.14658zM283.19782,229.69741l0.6806,-0.0492l0.0492,0.68163v0.14555c0,1.07011 -0.779,1.99466 -1.84911,2.09204h-0.6806l-0.04818,-0.68163v-0.14555c0,-1.07011 0.77798,-1.99466 1.84809,-2.04284zM247.15144,229.84296l0.53505,0.19475l-0.14555,0.43768c-0.09738,0.68163 -0.779,1.16748 -1.45961,1.16748c-0.14555,0 -0.24293,0 -0.3895,-0.04818l-0.43768,-0.09738l0.09738,-0.53505c0.14555,-0.68163 0.77798,-1.16748 1.45961,-1.16748c0.14555,0 0.24293,0 0.3403,0.04818zM268.65299,231.39995c0,0.7298 -0.3895,1.45961 -1.26486,1.79991l-0.77798,0.3403l-0.3895,-0.63243c-0.19475,-0.3403 -0.29213,-0.6806 -0.29213,-0.97273c0,-0.7298 0.53505,-1.41041 1.31406,-1.75173l0.72878,-0.3403l0.4387,0.63243c0.19373,0.29213 0.24293,0.63243 0.24293,0.92456zM292.78059,236.16725c-1.41041,-0.3895 -2.33496,-1.70253 -2.33496,-3.11294c0,-0.29213 0.0492,-0.58425 0.09738,-0.87638l0.3403,-1.07011l1.07113,0.29213c1.41041,0.43768 2.33496,1.70253 2.33496,3.11294c0,0.29213 -0.0492,0.63243 -0.14658,0.92456l-0.29213,1.02193zM258.04828,231.8858l1.07011,-0.3403l0.3403,1.07011c0.0492,0.34133 0.09738,0.63243 0.09738,0.92456c0,1.41041 -0.92456,2.67526 -2.38314,3.11294l-1.02193,0.29213l-0.29213,-1.02091c-0.09738,-0.34133 -0.14555,-0.63243 -0.14555,-0.92456c0,-1.45961 0.92353,-2.77264 2.33496,-3.11397zM269.72309,232.85955c0.19475,0 0.3403,0 0.58323,0.04818l1.21668,0.19475l-0.19475,1.26486c-0.29213,1.75071 -1.89729,3.01557 -3.64799,3.01557c-0.19475,0 -0.43768,0 -0.63243,-0.04818l-1.21668,-0.19475l0.19475,-1.21566c0.24293,-1.79991 1.89729,-3.06477 3.6972,-3.06477zM288.06249,235.77774c-0.92456,0 -1.79991,-0.43768 -2.33496,-1.31303l-0.48688,-0.779l0.82718,-0.43768c0.43768,-0.2911 0.97273,-0.38848 1.41041,-0.38848c0.97376,0 1.79991,0.43768 2.33496,1.26486l0.3895,0.82615l-0.7298,0.4387c-0.43768,0.2911 -0.92456,0.38848 -1.41041,0.38848zM281.20315,234.56209l-0.48585,-0.7298l0.72878,-0.48688c0.4387,-0.2911 0.92456,-0.38848 1.36223,-0.38848c0.779,0 1.55698,0.3403 2.04386,1.02091l0.48585,0.7298l-0.7298,0.48688c-0.38848,0.2911 -0.87535,0.43768 -1.36223,0.43768c-0.77798,0 -1.55596,-0.3895 -2.04284,-1.07011zM263.98306,233.68571l0.77798,0.4387l-0.48585,0.77798c-0.53608,0.87535 -1.41143,1.36223 -2.33496,1.36223c-0.48688,0 -0.97376,-0.14658 -1.41143,-0.3895l-0.77798,-0.48585l0.43768,-0.779c0.53505,-0.82718 1.41041,-1.31303 2.38416,-1.31303c0.43768,0 0.92353,0.14555 1.41041,0.38848zM274.15009,236.6531c0,1.07113 -0.53505,2.09204 -1.50881,2.62709l-0.92353,0.53505l-0.53505,-0.87535c-0.29213,-0.48688 -0.3895,-1.07011 -0.3895,-1.55698c0,-1.07011 0.53505,-2.09101 1.50778,-2.67526l0.92456,-0.48688l0.53505,0.87638c0.24293,0.48585 0.3895,1.02091 0.3895,1.55596zM275.36575,236.21542c-0.24293,0 -0.48585,-0.04818 -0.6806,-0.19475l-0.29213,-0.24293l0.24293,-0.24293c0.19475,-0.19475 0.43768,-0.3403 0.7298,-0.3403c0.29213,0 0.53505,0.09738 0.7298,0.24293l0.3403,0.24293l-0.24293,0.24395c-0.14555,0.19373 -0.48688,0.2911 -0.82718,0.2911zM297.59709,237.52948c0,0.48585 -0.14658,0.97273 -0.48688,1.41041l-0.53505,0.58323l-0.53505,-0.48585c-0.53505,-0.43768 -0.87535,-1.11931 -0.87535,-1.75173c0,-0.48585 0.19475,-0.97273 0.53505,-1.41041l0.48585,-0.58323l0.63243,0.48585c0.48688,0.43768 0.779,1.07011 0.779,1.75173zM275.46312,241.27485l-1.75173,-0.92456l0.82718,-1.75071c0.92456,-2.09204 2.91922,-3.25952 5.01125,-3.25952c0.82615,0 1.70253,0.19475 2.52869,0.58425l1.75173,0.87535l-0.77798,1.79991c-0.97376,2.09204 -2.96739,3.25849 -5.05943,3.25849c-0.87535,0 -1.70253,-0.19373 -2.52971,-0.58323zM254.01078,239.47494l-0.58425,0.53505l-0.53505,-0.63243c-0.3403,-0.43768 -0.48585,-0.87535 -0.48585,-1.41041c0,-0.63243 0.2911,-1.26486 0.77798,-1.75173l0.63243,-0.48585l0.43768,0.58323c0.3403,0.43768 0.58425,0.92456 0.58425,1.45961c0,0.63243 -0.29213,1.26486 -0.82718,1.70253zM303.23975,235.82694c0.6806,0.14555 1.16748,0.72878 1.16748,1.41041v0.24293l-0.04818,0.48688l-0.48688,-0.09738c-0.77798,-0.0492 -1.26486,-0.7298 -1.26486,-1.45961v-0.19475l0.09738,-0.43768zM285.97046,235.9725c1.26486,0 2.43234,0.87535 2.62709,2.18941l0.19475,0.87535l-0.92456,0.24293h-0.43768c-1.26486,0 -2.48051,-0.87535 -2.67526,-2.23759l-0.19475,-0.92456l0.92456,-0.09738c0.14555,-0.04818 0.3403,-0.04818 0.48585,-0.04818zM300.46711,236.06987c0.29213,0 0.58323,0.04818 0.82718,0.14555l0.6806,0.29213l-0.24293,0.6806c-0.3403,0.82718 -1.16748,1.36223 -1.99466,1.36223c-0.29213,0 -0.58425,-0.09738 -0.82718,-0.19475l-0.6806,-0.24293l0.24293,-0.6806c0.3403,-0.87638 1.16748,-1.36223 1.99466,-1.36223zM246.12951,238.35563l-0.43768,0.09738l-0.09738,-0.53505v-0.19373c0,-0.7298 0.48688,-1.26486 1.21668,-1.41143l0.43768,-0.09738l0.14555,0.48688v0.19475c0,0.7298 -0.58323,1.31303 -1.26486,1.45858zM262.13395,239.66969l-0.87535,-0.14658l0.14555,-0.92353c0.19475,-1.31406 1.31406,-2.14021 2.57891,-2.14021h0.53505l0.92456,0.14555l-0.19475,0.92456c-0.24395,1.26486 -1.36223,2.18839 -2.62709,2.18839c-0.19475,0 -0.29213,0 -0.48688,-0.04818zM248.27075,237.62685l-0.24395,-0.68163l0.68163,-0.24293c0.24293,-0.14658 0.53505,-0.19475 0.82718,-0.19475c0.82615,0 1.60516,0.53505 1.94546,1.36223l0.29213,0.7298l-0.68163,0.24293c-0.24293,0.09738 -0.48585,0.14555 -0.77798,0.14555c-0.82718,0 -1.70253,-0.48585 -2.04284,-1.36121zM292.24554,237.13998c1.36223,0 2.57891,0.77798 3.11397,2.14021l0.48585,1.07011l-1.11828,0.34133c-0.3895,0.14555 -0.87638,0.24293 -1.26486,0.24293c-1.36223,0 -2.57891,-0.779 -3.06477,-2.14021l-0.43768,-1.02193l1.07011,-0.43768c0.3895,-0.14658 0.82718,-0.19475 1.21566,-0.19475zM255.27564,241.17747l-1.07011,-0.3895l0.38848,-1.11828c0.53505,-1.26486 1.84911,-2.09204 3.16214,-2.09204c0.3895,0 0.82718,0.0492 1.21566,0.24293l1.07113,0.3895l-0.43768,1.07011c-0.48688,1.36223 -1.75173,2.14021 -3.11397,2.14021c-0.3895,0 -0.82718,-0.09738 -1.21566,-0.24293zM301.82934,244.82547c-1.02193,-0.87535 -1.45961,-1.99364 -1.45961,-3.21032c0,-0.92353 0.29213,-1.94546 0.97273,-2.67526l0.92456,-1.07011l1.11828,0.92456c0.92456,0.77798 1.41143,1.89729 1.41143,3.06374c0,0.97376 -0.34133,2.04386 -1.02193,2.77367l-0.87535,1.07011zM246.66457,239.28019l1.07113,-0.97273l0.87535,1.07011c0.6806,0.82718 1.02091,1.75173 1.02091,2.72446c0,1.16748 -0.43768,2.33496 -1.41041,3.16214l-1.07011,0.87535l-0.92456,-1.02193c-0.6806,-0.77798 -0.97273,-1.75071 -0.97273,-2.67526c0,-1.16748 0.43768,-2.38314 1.41041,-3.16214zM267.97136,238.35563c0.92456,0 1.89729,0.4387 2.52971,1.26486l0.68163,0.82718l-0.82718,0.68163c-0.63243,0.53505 -1.36223,0.72878 -2.04284,0.72878c-0.97376,0 -1.94649,-0.38848 -2.57891,-1.16646l-0.7298,-0.87638l0.87638,-0.7298c0.63243,-0.48585 1.36223,-0.7298 2.09101,-0.7298zM283.87842,242.00465l-0.6806,0.3403l-0.29213,-0.6806c-0.14555,-0.29213 -0.19475,-0.63243 -0.19475,-0.97273c0,-0.779 0.43768,-1.50881 1.16748,-1.89729l0.68163,-0.34133l0.3403,0.63243c0.09738,0.29213 0.19475,0.58425 0.19475,0.92456c0,0.82718 -0.43768,1.60516 -1.21668,1.99466zM299.88286,241.8099c0,0.29213 -0.04818,0.58425 -0.14555,0.87535l-0.24293,0.63243l-0.68163,-0.2911c-0.82718,-0.29213 -1.26486,-1.07113 -1.26486,-1.89729c0,-0.24395 0.0492,-0.53505 0.14658,-0.779l0.2911,-0.6806l0.63243,0.29213c0.779,0.2911 1.26486,1.07011 1.26486,1.84809zM288.40279,239.71787c0.63243,0 1.26486,0.19475 1.84809,0.53505l1.02193,0.63243l-0.63243,1.02193c-0.6806,1.07011 -1.84809,1.65436 -3.01557,1.65436c-0.63243,0 -1.26486,-0.14658 -1.84911,-0.48688l-1.07011,-0.58323l0.63243,-1.07113c0.68163,-1.07011 1.84911,-1.70253 3.06477,-1.70253zM272.39836,240.20474l0.24293,-0.29213l0.34133,0.29213c0.24293,0.24293 0.3403,0.53505 0.3403,0.87535c0,0.29213 -0.09738,0.63243 -0.3403,0.82718l-0.19475,0.29213l-0.3403,-0.29213c-0.24395,-0.19475 -0.3895,-0.48688 -0.3895,-0.82718c0,-0.3403 0.14555,-0.63243 0.3403,-0.87535zM259.84819,242.1994l-0.68163,-1.02193l1.02193,-0.58323c0.63243,-0.3895 1.26486,-0.58425 1.89729,-0.58425c1.16748,0 2.33496,0.63243 3.01557,1.70253l0.63243,1.02193l-1.02091,0.63243c-0.63243,0.3403 -1.26486,0.53505 -1.89729,0.53505c-1.21668,0 -2.28679,-0.58425 -2.96739,-1.70253zM251.14077,243.51244l-0.63243,0.29213l-0.19475,-0.63243c-0.14555,-0.3403 -0.19475,-0.58425 -0.19475,-0.87535c0,-0.82718 0.48688,-1.60516 1.26486,-1.89729l0.6806,-0.24395l0.19475,0.63243c0.14658,0.29213 0.14658,0.58425 0.14658,0.82718c0,0.779 -0.4387,1.55698 -1.26486,1.89729zM296.57516,245.21497c-1.45961,0 -2.87002,-0.97273 -3.21032,-2.48051l-0.24293,-1.07011l1.07011,-0.29213c0.24293,-0.0492 0.53505,-0.09738 0.77798,-0.09738c1.45961,0 2.82184,0.97273 3.21032,2.48051l0.29213,1.07011l-1.11931,0.29213c-0.24293,0.0492 -0.48585,0.09738 -0.77798,0.09738zM255.81069,241.8099l1.11828,0.29213l-0.29213,1.07011c-0.38848,1.50778 -1.75071,2.48051 -3.21032,2.48051c-0.29213,0 -0.53505,0 -0.77798,-0.04818l-1.07011,-0.29213l0.24293,-1.07011c0.3895,-1.50778 1.70253,-2.48051 3.21032,-2.48051c0.24395,0 0.53505,0 0.779,0.04818zM294.87263,247.64731c0,0.3895 -0.04818,0.77798 -0.14555,1.16748l-0.3895,1.31406l-1.36223,-0.3895c-1.79991,-0.58425 -2.91819,-2.18941 -2.91819,-3.94012c0,-0.3895 0.04818,-0.82718 0.14555,-1.21668l0.3403,-1.36223l1.41143,0.43768c1.75071,0.53608 2.91819,2.18941 2.91819,3.98932zM257.02635,250.17702l-1.31303,0.43768l-0.43768,-1.36223c-0.09738,-0.38848 -0.14658,-0.77798 -0.14658,-1.16748c0,-1.79991 1.16748,-3.40507 2.91922,-3.94012l1.36223,-0.43768l0.38848,1.31303c0.09738,0.3895 0.14658,0.82718 0.14658,1.21668c0,1.79991 -1.11931,3.35587 -2.91922,3.94012zM285.14328,246.5772c0.14658,-1.41041 1.31406,-2.43234 2.72446,-2.43234h0.3403l0.92456,0.09738l-0.09738,0.92456c-0.19475,1.41041 -1.31303,2.48051 -2.72446,2.48051c-0.09738,0 -0.24293,-0.04818 -0.3403,-0.04818l-0.97273,-0.14658zM260.96647,245.65265l-0.09738,-0.97273l0.92456,-0.09738h0.29213c1.36223,0 2.62709,1.02193 2.77264,2.43234l0.09738,0.92456l-0.87535,0.14555h-0.34133c-1.41041,0 -2.57789,-1.02091 -2.77264,-2.43234zM304.65016,246.09033c0,0.63243 -0.43768,1.21668 -1.02091,1.31406l-0.48688,0.04818v-0.58323c0,-0.63243 0.43768,-1.21668 1.02193,-1.26486l0.43768,-0.09738l0.04818,0.43768zM301.14771,247.40438c-0.24293,2.04284 -2.04284,3.55062 -4.08567,3.55062h-0.53505l-1.41143,-0.24293l0.14658,-1.41041c0.24293,-2.04386 2.09101,-3.55164 4.13487,-3.55164c0.19475,0 0.3403,0 0.58323,0.0492l1.41143,0.19475zM246.27609,247.64731l-0.0492,0.43768l-0.43768,-0.04818c-0.58323,-0.09738 -1.07011,-0.7298 -1.07011,-1.36223v-0.09738l0.09738,-0.43768l0.3895,0.04818c0.63243,0.09738 1.07011,0.63243 1.07011,1.26486zM254.74058,249.78752l0.14555,1.41143l-1.41041,0.19373c-0.14658,0.0492 -0.34133,0.0492 -0.53505,0.0492c-2.04386,0 -3.7464,-1.55698 -4.0867,-3.64902l-0.24293,-1.36121l1.41041,-0.19475c0.19475,-0.0492 0.3895,-0.0492 0.58425,-0.0492c2.04284,0 3.84275,1.50881 4.13487,3.59982zM284.99773,251.53926c0,-1.55698 0.97273,-2.96739 2.48051,-3.50244l1.21668,-0.3895l0.3895,1.16748c0.09635,0.3895 0.14555,0.77798 0.14555,1.16748c0,1.55698 -0.92456,2.96739 -2.52971,3.50244l-1.11931,0.3895l-0.38848,-1.16748c-0.14658,-0.3895 -0.19475,-0.779 -0.19475,-1.16748zM304.74753,249.54459c0,0.14555 0,0.29213 -0.04818,0.3895l-0.09738,0.58323l-0.58425,-0.14555c-0.77798,-0.14658 -1.36223,-0.87638 -1.36223,-1.65436c0,-0.09738 0.0492,-0.24293 0.0492,-0.29213l0.14555,-0.58323l0.53505,0.09738c0.779,0.19475 1.36223,0.87535 1.36223,1.60516zM245.93579,250.85763l-0.53505,0.09738l-0.14658,-0.58323v-0.24293c0,-0.82718 0.53505,-1.55698 1.36223,-1.70356l0.53505,-0.14555l0.09738,0.53505c0.04818,0.14555 0.04818,0.29213 0.04818,0.3895c0,0.77798 -0.53505,1.50778 -1.36121,1.65333zM261.55072,249.49539l0.3895,-1.21566l1.16748,0.3895c1.55596,0.48585 2.52869,1.94546 2.52869,3.50244c0,0.38848 -0.04818,0.77798 -0.14555,1.11828l-0.3895,1.16748l-1.21566,-0.3403c-1.55698,-0.53505 -2.52971,-1.94546 -2.52971,-3.50244c0,-0.3895 0.04818,-0.7298 0.19475,-1.11931zM298.76458,255.382c0,-1.70253 0.6806,-3.35689 2.04284,-4.52437l1.55698,-1.31303l1.31303,1.55698c0.97273,1.11828 1.36223,2.48051 1.36223,3.79355c0,1.70253 -0.6806,3.35689 -2.09204,4.52437l-1.45961,1.26486l-1.36121,-1.50778c-0.92456,-1.11931 -1.36223,-2.43234 -1.36223,-3.79457zM286.70026,257.37666c0,-2.38416 1.16748,-4.66993 3.30769,-6.08136l2.09204,-1.36121l1.36223,2.09101c0.82718,1.21668 1.21566,2.57891 1.21566,3.94115c0,2.38314 -1.21566,4.81548 -3.35587,6.17771l-2.04386,1.36223l-1.36223,-2.09204c-0.82615,-1.26486 -1.21566,-2.67526 -1.21566,-4.0375zM246.37346,251.58743l1.21566,-1.55596l1.60516,1.26383c1.31406,1.16851 1.99466,2.82184 1.99466,4.4762c0,1.36223 -0.43768,2.67526 -1.36223,3.84275l-1.31303,1.55698l-1.45961,-1.31406c-1.41041,-1.16748 -2.09204,-2.77264 -2.09204,-4.42597c0,-1.36223 0.4387,-2.72446 1.41143,-3.84377zM256.49129,252.46381l1.41041,-2.09204l2.09204,1.36223c2.14021,1.41041 3.30769,3.74537 3.30769,6.12851c0,1.36223 -0.38848,2.77367 -1.21566,4.03852l-1.36223,2.09101l-2.09204,-1.41041c-2.14021,-1.41041 -3.35587,-3.79457 -3.35587,-6.17771c0,-1.36223 0.38848,-2.72446 1.21566,-3.94012zM295.26213,255.13908c0,-1.02193 0.58323,-2.04386 1.50778,-2.43234l0.82718,-0.3895l0.3403,0.77798c0.14555,0.3895 0.19475,0.779 0.19475,1.16748c0,0.97376 -0.53505,1.89729 -1.45961,2.33496l-0.82718,0.3895l-0.3403,-0.77798c-0.19475,-0.3403 -0.24293,-0.68163 -0.24293,-1.07011zM252.0643,253.58209l0.34133,-0.82718l0.82615,0.3895c0.97376,0.43768 1.55698,1.41041 1.55698,2.38314c0,0.3895 -0.09738,0.7298 -0.24293,1.07011l-0.3895,0.82718l-0.82718,-0.38848c-0.97273,-0.4387 -1.55596,-1.41143 -1.55596,-2.38416c0,-0.3895 0.09738,-0.7298 0.2911,-1.07011zM286.79764,254.89512c0,0.63243 -0.43768,1.21668 -1.07011,1.31406l-0.3895,0.04818l-0.09738,-0.38848v-0.09738c0,-0.63243 0.48688,-1.31406 1.07011,-1.36223l0.43768,-0.0492l0.0492,0.3895zM265.49084,257.03636l-0.04818,0.48585l-0.4387,-0.09738c-0.58323,-0.09738 -1.02091,-0.63243 -1.02091,-1.26486v-0.19373l0.04818,-0.4387l0.3895,0.09738c0.63243,0.09738 1.07011,0.63243 1.07011,1.26486zM305.52654,259.95455c0,0.3895 -0.14658,0.82718 -0.3895,1.11931l-0.3895,0.43768l-0.43768,-0.3895c-0.3895,-0.29213 -0.58323,-0.77798 -0.58323,-1.26486c0,-0.43768 0.14555,-0.82718 0.43768,-1.16748l0.38848,-0.38848l0.43768,0.38848c0.3895,0.3403 0.53608,0.779 0.53608,1.26486zM298.22952,261.46233c-1.11931,0 -2.18941,-0.7298 -2.52971,-1.94546l-0.19475,-0.82718l0.82718,-0.24293c0.24293,-0.09738 0.48585,-0.09738 0.7298,-0.09738c1.11828,0 2.18839,0.7298 2.52971,1.89729l0.19373,0.82718l-0.77798,0.24293c-0.29213,0.09738 -0.53505,0.14555 -0.77798,0.14555zM253.67048,258.88445l0.87535,0.29213l-0.29213,0.82718c-0.29213,1.16748 -1.36223,1.89729 -2.48051,1.89729c-0.24395,0 -0.43768,0 -0.7298,-0.09738l-0.87535,-0.24395l0.24293,-0.87535c0.3403,-1.16748 1.36223,-1.89729 2.52971,-1.89729c0.24293,0 0.48585,0 0.7298,0.09738zM286.45733,259.90638c0,0.24293 -0.09738,0.58323 -0.29213,0.77798l-0.24293,0.29213l-0.29213,-0.24395c-0.24293,-0.24293 -0.3895,-0.58323 -0.3895,-0.87535c0,-0.24293 0.09738,-0.53505 0.29213,-0.77798l0.24293,-0.29213l0.29213,0.29213c0.24293,0.19475 0.3895,0.53505 0.3895,0.82718zM264.37154,261.17123l-0.2911,0.24293l-0.24395,-0.24293c-0.19373,-0.24395 -0.2911,-0.53505 -0.2911,-0.779c0,-0.2911 0.14555,-0.63243 0.38848,-0.87535l0.24395,-0.24293l0.24293,0.24293c0.24293,0.24293 0.3403,0.53505 0.3403,0.82718c0,0.29213 -0.14555,0.58323 -0.3895,0.82718zM301.14771,262.58164c0,-0.19475 0.0492,-0.43768 0.09738,-0.6806l0.24293,-1.11931l1.16748,0.29213c1.65436,0.43768 2.87104,1.89729 2.87104,3.50244c0,0.19475 -0.0492,0.48585 -0.09738,0.6806l-0.24395,1.16748l-1.16748,-0.3403c-1.65333,-0.3895 -2.87002,-1.89729 -2.87002,-3.50244zM284.90035,263.94387c0,-0.97273 0.43768,-1.84911 1.26486,-2.38416l0.87535,-0.53505l0.48688,0.82718c0.29213,0.43768 0.48585,1.02193 0.48585,1.50778c0,0.97273 -0.48585,1.84911 -1.36121,2.38416l-0.7298,0.53505l-0.58425,-0.82718c-0.29213,-0.43768 -0.43768,-1.02193 -0.43768,-1.50778zM293.60777,263.69992c-0.29213,0 -0.58323,-0.04818 -0.92456,-0.19373l-0.6806,-0.29213l0.29213,-0.7298c0.38848,-0.82718 1.21566,-1.31303 2.04284,-1.31303c0.29213,0 0.63243,0.04818 0.92456,0.24293l0.7298,0.29213l-0.34133,0.6806c-0.38848,0.82718 -1.21566,1.31303 -2.04284,1.31303zM247.29699,261.55971l1.21668,-0.3403l0.24293,1.16748c0.0492,0.19475 0.09738,0.43768 0.09738,0.63243c0,1.60516 -1.21566,3.06477 -2.87002,3.50244l-1.16748,0.3403l-0.24293,-1.11828c-0.0492,-0.24395 -0.09738,-0.48688 -0.09738,-0.68163c0,-1.60516 1.16748,-3.11294 2.82082,-3.50244zM262.47528,262.28951l0.53505,-0.82718l0.82615,0.53505c0.82718,0.58425 1.31406,1.45961 1.31406,2.38416c0,0.53505 -0.19475,1.07011 -0.48688,1.55698l-0.58323,0.82615l-0.779,-0.58323c-0.82615,-0.53505 -1.31303,-1.45961 -1.31303,-2.33496c0,-0.53505 0.19475,-1.07011 0.48688,-1.55698zM257.70798,262.97114l0.3403,0.6806l-0.7298,0.3403c-0.29213,0.09738 -0.63243,0.19475 -0.92456,0.19475c-0.82718,0 -1.65333,-0.53505 -2.04284,-1.31303l-0.29213,-0.68163l0.68163,-0.3403c0.2911,-0.14555 0.58323,-0.24293 0.87535,-0.24293c0.87535,0 1.70253,0.53505 2.09204,1.36223zM300.12681,266.61914c-1.65436,-0.14555 -2.96739,-1.55698 -2.96739,-3.21032v-0.19475l0.09738,-1.11931l1.07011,0.09738c1.75071,0.09738 2.96739,1.45961 2.96739,3.16214v0.29213l-0.0492,1.07011zM251.67582,262.62982l1.07011,-0.09738l0.04818,1.11931v0.24293c0,1.70253 -1.26486,3.06477 -2.96739,3.21134l-1.07011,0.09738l-0.04818,-1.11931v-0.29213c0,-1.65333 1.21566,-3.06477 2.96739,-3.16214zM291.37019,263.69992c0,0.53608 -0.29213,1.02193 -0.82718,1.26486l-0.38848,0.19475l-0.24395,-0.43768c-0.04818,-0.14555 -0.09738,-0.3403 -0.09738,-0.53505c0,-0.53505 0.29213,-1.07011 0.779,-1.26486l0.43768,-0.24293l0.24293,0.43768c0.0492,0.19475 0.09738,0.43768 0.09738,0.58323zM294.14283,265.54903c0,-1.11931 0.779,-2.09204 1.89729,-2.33496l0.87535,-0.24293l0.14658,0.87535c0.04818,0.14555 0.04818,0.3895 0.04818,0.53505c0,1.11828 -0.7298,2.09204 -1.89729,2.38314l-0.82615,0.19475l-0.14658,-0.82718c-0.04818,-0.19373 -0.09738,-0.3403 -0.09738,-0.58323zM260.09111,265.20873l-0.24293,0.43768l-0.3895,-0.24293c-0.53505,-0.24395 -0.82718,-0.68163 -0.82718,-1.21668c0,-0.19475 0.0492,-0.3895 0.14658,-0.58323l0.19373,-0.4387l0.4387,0.19475c0.48585,0.24395 0.77798,0.779 0.77798,1.31406c0,0.19373 0,0.38848 -0.09738,0.53505zM252.94068,264.33235l0.19373,-0.87535l0.82718,0.19475c1.16748,0.29213 1.89729,1.31303 1.89729,2.43234c0,0.14555 0,0.3895 -0.04818,0.53505l-0.19475,0.82718l-0.82718,-0.24293c-1.11828,-0.24395 -1.89729,-1.26486 -1.89729,-2.38416c0,-0.14555 0,-0.3403 0.0492,-0.48688zM293.26747,265.15953c-0.14555,0.97273 -0.87535,1.60516 -1.75173,1.60516h-0.24293l-0.6806,-0.04818l0.09738,-0.63243c0.09738,-0.92456 0.87535,-1.60516 1.79991,-1.60516h0.24293l0.63243,0.04818zM257.6106,264.9166c0.82615,0 1.55596,0.6806 1.70253,1.60516l0.09738,0.68163h-0.87638c-0.92353,0 -1.70253,-0.68163 -1.79991,-1.55698l-0.09738,-0.63243l0.68163,-0.0492c0.04818,0 0.19475,-0.04818 0.29213,-0.04818zM289.91058,265.98671c-0.14555,0.53505 -0.6806,0.87535 -1.21566,0.87535c-0.19475,0 -0.3895,-0.04818 -0.58425,-0.09738l-0.38848,-0.14555l0.14555,-0.43768c0.19475,-0.58425 0.7298,-0.92456 1.26486,-0.92456c0.19475,0 0.3403,0.0492 0.53505,0.14658l0.48688,0.14555zM260.86909,265.74378c0.53505,0 1.07113,0.3403 1.26486,0.87535l0.19475,0.48688l-0.43768,0.09738c-0.19475,0.09635 -0.3895,0.14555 -0.58323,0.14555c-0.53608,0 -1.02193,-0.3403 -1.21668,-0.87535l-0.24293,-0.4387l0.43768,-0.19373c0.19475,-0.0492 0.3895,-0.09738 0.58323,-0.09738z"></path></g></g><g data-paper-data="{&quot;isContainerElementsWrapper&quot;:true}"><path d="M183.78304,143.78318c-11.90058,11.90064 -21.11489,25.56799 -27.64293,41.00206c-6.7601,15.9824 -10.14015,32.72054 -10.14015,50.21443c0,17.49376 3.38005,34.23203 10.14015,50.21481c6.52817,15.43363 15.74248,29.10086 27.64293,41.00168c11.90088,11.9002 25.56826,21.11448 41.00215,27.64284c15.9824,6.76067 32.72054,10.141 50.21443,10.141c17.49383,0 34.23213,-3.38033 50.2149,-10.141c15.43363,-6.52773 29.10086,-15.74201 41.00168,-27.64284c11.9002,-11.90083 21.11448,-25.56805 27.64284,-41.00168c6.76067,-15.98277 10.141,-32.72104 10.141,-50.21481c0,-17.49389 -3.38033,-34.23203 -10.141,-50.21443c-6.52836,-15.43412 -15.74264,-29.10148 -27.64284,-41.00206c-11.90083,-11.90064 -25.56805,-21.11498 -41.00168,-27.64303c-15.98277,-6.7601 -32.72107,-10.14015 -50.2149,-10.14015c-17.49376,0 -34.23191,3.38005 -50.21443,10.14015c-15.43405,6.52798 -29.10143,15.74233 -41.00215,27.64303zM148.4525,234.99967c0,-17.16221 3.31543,-33.58189 9.94629,-49.25903c6.40382,-15.14037 15.4433,-28.54812 27.11846,-40.22324c11.67515,-11.67522 25.08292,-20.71474 40.22333,-27.11856c15.67702,-6.63086 32.0967,-9.94629 49.25903,-9.94629c17.16196,0 33.58154,3.31543 49.25875,9.94629c15.14059,6.40388 28.54858,15.44337 40.22399,27.11846c11.67478,11.6755 20.71436,25.08328 27.11874,40.22333c6.63042,15.67702 9.94564,32.0967 9.94564,49.25903c0,17.16252 -3.31521,33.58208 -9.94564,49.25866c-6.40438,15.14059 -15.44396,28.54858 -27.11874,40.22399c-11.67603,11.67541 -25.08403,20.71499 -40.22399,27.11874c-15.67721,6.63042 -32.09679,9.94564 -49.25875,9.94564c-17.16234,0 -33.58201,-3.31521 -49.25903,-9.94564c-15.14053,-6.40438 -28.54831,-15.44396 -40.22333,-27.11874c-11.67509,-11.67541 -20.71458,-25.08341 -27.11846,-40.22399c-6.63086,-15.67721 -9.94629,-32.09676 -9.94629,-49.25866z" data-paper-data="{&quot;isAdditionalOutlinePath&quot;:true}"></path><path d="M152.37638,234.99967c0,-67.72292 54.90032,-122.62325 122.62325,-122.62325c67.72332,0 122.62297,54.90033 122.62297,122.62325c0,67.72322 -54.89965,122.62287 -122.62297,122.62287c-67.72293,0 -122.62325,-54.89965 -122.62325,-122.62287zM269.46495,126.06738l-0.43957,20.12684l2.55361,0.05579l0.34545,-15.8159l10.22591,16.04677l2.73207,0.05974l0.43966,-20.12684l-2.55361,-0.05579l-0.34517,15.80219l-10.22628,-16.03305zM295.00661,148.25924l6.19806,-19.15378l7.22559,2.33806c1.27079,0.41148 2.22319,0.78671 2.85436,1.12568c0.88946,0.46126 1.58168,1.01466 2.07479,1.6602c0.4931,0.64564 0.80587,1.42755 0.93736,2.34557c0.13055,0.91802 0.04227,1.85181 -0.26487,2.8012c-0.52691,1.62883 -1.49152,2.83952 -2.89287,3.63205c-1.40135,0.79253 -3.45641,0.75055 -6.16519,-0.12605l-4.91318,-1.58967l-2.51905,7.78698zM300.79235,139.03221l4.95169,1.60235c1.63804,0.52992 2.89944,0.6013 3.78515,0.21434c0.88477,-0.38706 1.50654,-1.13376 1.8644,-2.23991c0.25923,-0.80136 0.27895,-1.55285 0.05823,-2.25437c-0.21978,-0.70161 -0.63211,-1.25098 -1.23416,-1.64809c-0.39072,-0.25134 -1.15996,-0.56308 -2.31054,-0.93511l-4.89909,-1.58544zM241.22381,152.67358l-7.36826,-18.73478l2.47922,-0.97503l7.36826,18.73474zM218.07497,166.5798l-11.46202,-16.5501l2.1901,-1.51678l4.70682,6.79615l8.60243,-5.95778l-4.70682,-6.79608l2.19013,-1.51678l11.46204,16.55002l-2.19013,1.5168l-5.40262,-7.80089l-8.60243,5.95775l5.40262,7.80088zM335.61194,161.36455l-1.82777,-2.05161c-1.25295,1.19657 -2.5491,1.86086 -3.88846,1.99285c-1.33936,0.132 -2.62612,-0.22059 -3.86123,-1.05777c-1.01626,-0.68823 -1.78174,-1.58913 -2.29927,-2.7027c-0.51752,-1.11356 -0.62366,-2.33889 -0.32028,-3.67601c0.30338,-1.33711 0.93549,-2.71425 1.89539,-4.13144c0.74513,-1.09885 1.64242,-2.04739 2.69187,-2.84562c1.05007,-0.79817 2.21285,-1.21275 3.48835,-1.24365c1.27643,-0.0309 2.55474,0.38763 3.83587,1.25567c1.11394,0.75496 1.85093,1.65817 2.21098,2.70962c0.36067,1.05141 0.3231,2.31437 -0.11271,3.78887l2.51811,0.95993c0.59548,-1.84145 0.61239,-3.57179 0.05072,-5.19099c-0.56073,-1.61916 -1.67561,-2.99374 -3.34276,-4.12365c-1.46991,-0.99644 -3.04502,-1.57398 -4.72345,-1.73281c-1.67843,-0.15883 -3.28641,0.18315 -4.82583,1.02593c-1.53848,0.84269 -2.89568,2.1318 -4.07255,3.86724c-1.07825,1.59145 -1.79395,3.27968 -2.14617,5.06459c-0.35316,1.7849 -0.21415,3.42436 0.41608,4.91839c0.62929,1.49403 1.84185,2.84967 3.63862,4.06692c1.73509,1.17616 3.5256,1.69573 5.37153,1.5587c1.84561,-0.13704 3.61327,-0.95452 5.30296,-2.45247zM199.21272,234.99967c0,-41.85592 33.93098,-75.7869 75.78691,-75.7869c41.85564,0 75.78671,33.93097 75.78671,75.7869c0,41.85555 -33.93107,75.78662 -75.78671,75.78662c-41.85592,0 -75.78691,-33.93107 -75.78691,-75.78662zM206.41748,320.25197l11.46202,-16.55039l2.19013,1.51688l-4.70682,6.79636l8.60243,5.95761l4.70682,-6.79636l2.19013,1.51688l-11.46204,16.55039l-2.19013,-1.51688l5.40262,-7.80135l-8.60243,-5.95761l-5.40262,7.80135zM337.35141,315.9493l2.58292,-0.93736c0.76548,2.12457 0.86974,4.06974 0.31277,5.83457c-0.55666,1.76515 -1.70253,3.236 -3.43763,4.41256c-1.79677,1.21726 -3.50525,1.84091 -5.12638,1.87285c-1.62019,0.03099 -3.19436,-0.44802 -4.72157,-1.4361c-1.52721,-0.98902 -2.83088,-2.27954 -3.90913,-3.87062c-1.17593,-1.73572 -1.87097,-3.47426 -2.08324,-5.21561c-0.21227,-1.74136 0.06575,-3.36249 0.83499,-4.86246c0.77018,-1.49997 1.88976,-2.74822 3.35967,-3.74476c1.66716,-1.12991 3.35685,-1.65588 5.06909,-1.57793c1.71224,0.0789 3.31271,0.73543 4.80235,1.97053l-1.82401,1.98368c-1.2088,-0.95051 -2.36783,-1.45395 -3.47801,-1.50842c-1.11018,-0.05542 -2.22225,0.29492 -3.33619,1.05007c-1.28019,0.86786 -2.14335,1.90009 -2.58667,3.09668c-0.44457,1.19659 -0.4906,2.43045 -0.13807,3.70155c0.35222,1.27079 0.90167,2.45518 1.64555,3.55409c0.96084,1.41732 2.00622,2.51435 3.13519,3.29204c1.12991,0.77675 2.30772,1.13179 3.53343,1.06416c1.22571,-0.06763 2.34623,-0.44614 3.36155,-1.13367c1.23604,-0.8378 2.04003,-1.9029 2.41385,-3.1953c0.37382,-1.2924 0.23669,-2.74259 -0.41045,-4.35057zM241.09814,317.64557l-7.36826,18.73413l2.47922,0.97493l7.36826,-18.73413zM295.11275,322.06659l6.19806,19.15397l2.53408,-0.81996l-2.51999,-7.78726l4.91318,-1.5892c2.70877,-0.87725 4.39847,-2.04661 5.07003,-3.50995c0.67156,-1.46428 0.74388,-3.01027 0.21696,-4.63892c-0.30713,-0.94957 -0.78333,-1.75732 -1.42671,-2.42512c-0.64432,-0.66686 -1.35533,-1.1177 -2.13396,-1.35157c-0.77769,-0.23387 -1.66246,-0.27708 -2.6543,-0.12962c-0.71007,0.09486 -1.70097,0.34846 -2.9727,0.75985zM305.54585,328.75024l-4.95169,1.60235l-2.21567,-6.84614l4.89909,-1.58544c1.15026,-0.37194 1.95707,-0.57043 2.42043,-0.59548c0.72134,-0.03099 1.37599,0.17282 1.96583,0.61239c0.58984,0.43957 1.01438,1.0604 1.27361,1.86158c0.35785,1.10643 0.29117,2.07573 -0.19912,2.90789c-0.49122,0.83217 -1.55539,1.51312 -3.19248,2.04285zM269.47247,344.27497l-0.43966,-20.12702l2.73216,-0.05917l10.91653,15.57076l-0.34517,-15.80181l2.55361,-0.05542l0.43957,20.12608l-2.73207,0.06011l-10.91681,-15.58485l0.34545,15.8159z" data-paper-data="{&quot;isBaseLogoContainer&quot;:true}"></path></g></g></g></svg>