<svg xmlns:mydata="http://www.w3.org/2000/svg" mydata:contrastcolor="342800" mydata:template="Contrast" mydata:presentation="2.5" mydata:layouttype="undefined" mydata:specialfontid="undefined" mydata:id1="219" mydata:id2="219" mydata:companyname="Hi NPC" mydata:companytagline="" version="1.1" xmlns="http://www.w3.org/2000/svg" xmlns:xlink="http://www.w3.org/1999/xlink" viewBox="0 0 550 470"><defs><linearGradient x1="146" y1="235" x2="404" y2="235" gradientUnits="userSpaceOnUse" id="color-18702346221"><stop offset="0" stop-color="#ac8400"></stop><stop offset="1" stop-color="#fdee79"></stop></linearGradient></defs><g fill="url(#color-18702346221)" fill-rule="none" stroke="none" stroke-width="1" stroke-linecap="butt" stroke-linejoin="miter" stroke-miterlimit="10" stroke-dasharray="" stroke-dashoffset="0" font-family="none" font-weight="none" font-size="none" text-anchor="none" style="mix-blend-mode: normal"><g data-paper-data="{&quot;isGlobalGroup&quot;:true,&quot;bounds&quot;:{&quot;x&quot;:146.00000000000003,&quot;y&quot;:106.00000000000003,&quot;width&quot;:258,&quot;height&quot;:258}}"><g data-paper-data="{&quot;selectedEffects&quot;:{&quot;container&quot;:&quot;circle_simple_filled&quot;,&quot;transformation&quot;:&quot;&quot;,&quot;pattern&quot;:&quot;&quot;},&quot;initialText&quot;:&quot;HN&quot;,&quot;fillRule&quot;:&quot;nonzero&quot;,&quot;blockLetter&quot;:&quot;O&quot;,&quot;blockLetterId&quot;:0,&quot;relativeBoundsIconToContainer&quot;:{&quot;top&quot;:-0.0005349860884556509,&quot;left&quot;:1.686432586711567e-16},&quot;widthRatioIconToContainer&quot;:0.8954614955556892,&quot;heightRatioIconToContainer&quot;:0.8708802539520639,&quot;bounds&quot;:{&quot;x&quot;:196.3827756007484,&quot;y&quot;:156.3827756007484,&quot;width&quot;:157.23366263019005,&quot;height&quot;:157.23366263019017},&quot;isIcon&quot;:&quot;true&quot;,&quot;iconType&quot;:&quot;initial&quot;,&quot;iconStyle&quot;:&quot;standalone&quot;,&quot;rawInitialId&quot;:1087,&quot;monogramSpecial&quot;:&quot;emblem&quot;,&quot;suitableAsStandaloneIcon&quot;:true}" fill-rule="nonzero"><path d="M196.38278,234.99961c0,-43.41887 35.19796,-78.61683 78.61683,-78.61683c43.41887,0 78.61683,35.19796 78.61683,78.61683c0,43.41887 -35.19796,78.61683 -78.61683,78.61683c-43.41887,0 -78.61683,-35.19796 -78.61683,-78.61683zM270.85853,303.38133v-136.93168c-4.11252,0.15231 -8.22503,0.60926 -12.18524,1.52316v56.35676l-40.36362,23.30428c-1.06621,-4.11252 -1.52316,-8.37735 -1.52316,-12.64219c0,-16.14545 6.8542,-30.76774 17.66861,-40.97288l-8.68199,-8.68199c-12.94682,12.48988 -21.17187,30.15848 -21.17187,49.65487c0,21.32418 9.90051,40.51593 25.28438,53.15812l8.68199,-8.68199c-6.8542,-5.33104 -12.33756,-12.18524 -16.14545,-20.10566l36.2511,-21.01955v63.51558c3.9602,0.9139 8.07272,1.37083 12.18524,1.52316zM279.14069,303.38133c4.11252,-0.15231 8.22503,-0.60926 12.18524,-1.52316v-81.64113l16.14545,67.93273h12.48988c15.53619,-12.64219 25.4367,-31.83395 25.4367,-53.15812c0,-19.6487 -8.22503,-37.31731 -21.32418,-49.80718l-8.68199,8.68199c10.96672,10.20514 17.82092,24.82743 17.82092,41.1252c0,15.38388 -6.24494,29.3969 -16.45008,39.60204l-25.4367,-106.62089c-3.9602,-0.9139 -8.07272,-1.37083 -12.18524,-1.52316z" data-paper-data="{&quot;isPathIcon&quot;:true}"></path></g><g data-paper-data="{&quot;isPrimaryText&quot;:true}" fill-rule="nonzero"><path d="M211.78233,139.53282l14.47322,18.63761l-2.7011,2.09757l-6.8171,-8.77859l-8.15733,6.33466l6.8171,8.77859l-2.7011,2.09757l-14.47322,-18.63761l2.7011,-2.09757l5.85222,7.53608l8.15733,-6.33466l-5.85222,-7.53608z" data-paper-data="{&quot;glyphName&quot;:&quot;H&quot;,&quot;glyphIndex&quot;:0,&quot;firstGlyphOfWord&quot;:true,&quot;word&quot;:1}"></path><path d="M241.13533,150.58648l-3.14886,1.33434l-9.20692,-21.72711l3.14886,-1.33434z" data-paper-data="{&quot;glyphName&quot;:&quot;I&quot;,&quot;glyphIndex&quot;:1,&quot;lastGlyphOfWord&quot;:true,&quot;word&quot;:1}"></path><path d="M289.15311,121.383l-0.9559,22.24305c-0.03818,0.88836 -0.47866,1.31442 -1.32146,1.2782l-3.24591,-0.13949c-0.68335,-0.02937 -1.15791,-0.40348 -1.42368,-1.12233l-6.65589,-16.37443c-0.74367,-1.81195 -1.16364,-2.92538 -1.25991,-3.34028l-0.47835,-0.02056c0.07474,0.91603 0.08469,2.01184 0.02988,3.28742l-0.73564,17.11793l-3.41675,-0.14683l0.9559,-22.24305c0.03818,-0.88836 0.49005,-1.31393 1.35563,-1.27674l3.14341,0.13509c0.66057,0.02839 1.14652,0.40299 1.45785,1.1238l6.46851,15.95561c0.0823,0.20892 0.22731,0.55175 0.43503,1.0285c0.20772,0.47675 0.39933,0.92998 0.57483,1.3597c0.17551,0.42972 0.33515,0.83023 0.47894,1.20154l0.51251,0.02203c-0.05516,-1.3716 -0.05973,-2.59268 -0.01372,-3.66327l0.71215,-16.57125z" data-paper-data="{&quot;glyphName&quot;:&quot;N&quot;,&quot;glyphIndex&quot;:2,&quot;firstGlyphOfWord&quot;:true,&quot;word&quot;:2}"></path><path d="M300.33749,147.60597l8.53406,-22.00011c1.88098,0.50956 4.46882,1.40336 7.76352,2.68141c2.74204,1.06366 4.43888,2.28434 5.09051,3.66203c0.65163,1.37769 0.45798,3.40567 -0.58095,6.08394c-1.04717,2.69953 -2.25461,4.34648 -3.62231,4.94085c-1.3677,0.59437 -3.33755,0.3927 -5.90954,-0.605c-1.59421,-0.61841 -3.17257,-1.34072 -4.73509,-2.16692l-3.35178,8.64062zM307.83004,137.74708l4.40002,1.70681c1.55994,0.58066 2.73819,0.69535 3.53473,0.34406c0.79654,-0.35129 1.51639,-1.35592 2.15953,-3.0139c0.64315,-1.65798 0.78908,-2.88524 0.43779,-3.68178c-0.35129,-0.79654 -1.30278,-1.49577 -2.85448,-2.09769c-2.12561,-0.82455 -3.59641,-1.38286 -4.41239,-1.67493z" data-paper-data="{&quot;glyphName&quot;:&quot;P&quot;,&quot;glyphIndex&quot;:3,&quot;word&quot;:2}"></path><path d="M338.8653,166.10052l-1.33303,2.25731c-1.82731,-0.73575 -3.83601,-1.961 -6.02611,-3.67575c-2.71069,-2.12235 -4.05135,-4.33028 -4.02197,-6.62378c0.02938,-2.2935 1.42851,-5.20848 4.19741,-8.74495c2.7689,-3.53646 5.26308,-5.59407 7.48255,-6.17283c2.21947,-0.57875 4.68455,0.19305 7.39524,2.3154c1.93877,1.51797 3.5126,3.03977 4.72147,4.56539l-1.89266,1.86258c-1.32368,-1.26804 -2.89208,-2.61185 -4.70519,-4.03143c-1.7054,-1.33525 -3.29332,-1.73879 -4.76376,-1.21062c-1.47044,0.52817 -3.27386,2.15658 -5.41027,4.88522c-2.13641,2.72864 -3.2846,4.87007 -3.44457,6.42428c-0.15997,1.55421 0.61274,2.99894 2.31814,4.3342c2.27985,1.78502 4.10744,3.05668 5.48275,3.81498z" data-paper-data="{&quot;glyphName&quot;:&quot;C&quot;,&quot;glyphIndex&quot;:4,&quot;lastGlyphOfWord&quot;:true,&quot;word&quot;:2}"></path></g><g data-paper-data="{&quot;isMirroredPrimaryText&quot;:true}" fill-rule="nonzero"><path d="M226.00384,312.15291l-14.47322,18.63761l-2.7011,-2.09757l6.8171,-8.77859l-8.15733,-6.33466l-6.8171,8.77859l-2.7011,-2.09757l14.47322,-18.63761l2.7011,2.09757l-5.85222,7.53608l8.15733,6.33466l5.85222,-7.53608z" data-paper-data="{&quot;glyphName&quot;:&quot;H&quot;,&quot;glyphIndex&quot;:0,&quot;firstGlyphOfWord&quot;:true,&quot;word&quot;:1}"></path><path d="M231.76829,341.51771l-3.14886,-1.33434l9.20692,-21.72711l3.14886,1.33434z" data-paper-data="{&quot;glyphName&quot;:&quot;I&quot;,&quot;glyphIndex&quot;:1,&quot;lastGlyphOfWord&quot;:true,&quot;word&quot;:1}"></path><path d="M288.15757,325.45064l0.9559,22.24305c0.03818,0.88836 -0.36413,1.35064 -1.20693,1.38686l-3.24591,0.13949c-0.68335,0.02937 -1.18826,-0.30265 -1.51472,-0.99605l-8.03614,-15.74304c-0.89637,-1.74147 -1.41032,-2.81476 -1.54183,-3.21988l-0.47835,0.02056c0.15305,0.90624 0.25698,1.99715 0.3118,3.27274l0.73564,17.11793l-3.41675,0.14683l-0.9559,-22.24305c-0.03818,-0.88836 0.37552,-1.35113 1.2411,-1.38833l3.14341,-0.13509c0.66057,-0.02839 1.17687,0.30314 1.54889,0.99459l7.81351,15.34184c0.09992,0.20109 0.27381,0.53022 0.52166,0.98738c0.24785,0.45717 0.47764,0.89229 0.68936,1.30537c0.21173,0.41308 0.40514,0.79842 0.58025,1.15602l0.51251,-0.02203c-0.17263,-1.36181 -0.28194,-2.578 -0.32795,-3.64858l-0.71215,-16.57125z" data-paper-data="{&quot;glyphName&quot;:&quot;N&quot;,&quot;glyphIndex&quot;:2,&quot;firstGlyphOfWord&quot;:true,&quot;word&quot;:2}"></path><path d="M309.01996,344.77596l-8.53406,-22.00011c1.73256,-0.89217 4.2462,-1.97728 7.5409,-3.25533c2.74204,-1.06366 4.81817,-1.30656 6.22838,-0.72868c1.41021,0.57788 2.63479,2.20595 3.67371,4.88423c1.04717,2.69953 1.2662,4.72989 0.65708,6.09109c-0.60912,1.3612 -2.19968,2.54065 -4.77167,3.53835c-1.59421,0.61841 -3.24678,1.14941 -4.95771,1.59301l3.35178,8.64062zM307.90425,332.44343l4.40002,-1.70681c1.54345,-0.62318 2.49082,-1.33303 2.84211,-2.12958c0.35129,-0.79654 0.20536,-2.0238 -0.43779,-3.68178c-0.64315,-1.65798 -1.36299,-2.66261 -2.15953,-3.0139c-0.79654,-0.35129 -1.97066,-0.22597 -3.52236,0.37595c-2.12561,0.82455 -3.58817,1.40411 -4.38765,1.7387z" data-paper-data="{&quot;glyphName&quot;:&quot;P&quot;,&quot;glyphIndex&quot;:3,&quot;word&quot;:2}"></path><path d="M349.95494,318.0625l1.87158,1.83565c-1.15265,1.59743 -2.82403,3.25352 -5.01412,4.96826c-2.71069,2.12235 -5.17577,2.89415 -7.39524,2.3154c-2.21947,-0.57875 -4.71365,-2.63636 -7.48255,-6.17283c-2.7689,-3.53646 -4.16803,-6.45145 -4.19741,-8.74495c-0.02938,-2.2935 1.31128,-4.50143 4.02197,-6.62378c1.93877,-1.51797 3.7937,-2.68074 5.56479,-3.4883l1.35411,2.28424c-1.54857,0.98081 -3.22941,2.18101 -5.04252,3.6006c-1.7054,1.33525 -2.47811,2.77999 -2.31814,4.3342c0.15997,1.55421 1.30817,3.69564 3.44457,6.42428c2.13641,2.72864 3.93983,4.35705 5.41027,4.88522c1.47044,0.52817 3.05836,0.12463 4.76376,-1.21062c2.27985,-1.78502 3.95283,-3.25415 5.01893,-4.40738z" data-paper-data="{&quot;glyphName&quot;:&quot;C&quot;,&quot;glyphIndex&quot;:4,&quot;lastGlyphOfWord&quot;:true,&quot;word&quot;:2}"></path></g><g data-paper-data="{&quot;isContainerElementsWrapper&quot;:true}" fill-rule="evenodd"><path d="M183.78305,143.78305c-11.90226,11.90224 -21.11727,25.57007 -27.64502,41.00349c-6.75869,15.97959 -10.13803,32.71728 -10.13803,50.21306c0,17.49552 3.37934,34.23304 10.13803,50.21257c6.52795,15.43379 15.74295,29.10199 27.64502,41.00457c11.90387,11.90324 25.57173,21.11779 41.00359,27.64364c15.98038,6.75974 32.71803,10.13961 50.21296,10.13961c17.49552,0 34.23304,-3.37987 50.21257,-10.13961c15.4351,-6.52782 29.1033,-15.74237 41.00457,-27.64364c11.90193,-11.90324 21.11648,-25.57143 27.64364,-41.00457c6.75974,-15.97953 10.13961,-32.71705 10.13961,-50.21257c0,-17.49559 -3.37987,-34.23327 -10.13961,-50.21306c-6.52782,-15.43403 -15.74237,-29.10186 -27.64364,-41.00349c-11.90259,-11.90233 -25.57078,-21.11733 -41.00457,-27.64502c-15.97953,-6.75869 -32.71705,-10.13803 -50.21257,-10.13803c-17.49565,0 -34.23334,3.37934 -50.21306,10.13803c-15.43336,6.52775 -29.10119,15.74276 -41.00349,27.64502zM148.54463,234.99961c0,-17.15164 3.31239,-33.55887 9.93717,-49.2217c6.39889,-15.12875 15.43242,-28.52725 27.1006,-40.19551c11.66838,-11.66824 25.06688,-20.70178 40.19551,-27.1006c15.6627,-6.62478 32.06993,-9.93717 49.2217,-9.93717c17.15223,0 33.55956,3.31239 49.222,9.93717c15.12915,6.39895 28.52743,15.43248 40.19482,27.1006c11.66805,11.66772 20.70178,25.06622 27.10119,40.19551c6.62478,15.66244 9.93717,32.06967 9.93717,49.2217c0,17.15157 -3.31239,33.5589 -9.93717,49.222c-6.3981,15.12719 -15.43183,28.52546 -27.10119,40.19482c-11.66739,11.66805 -25.06567,20.70178 -40.19482,27.10119c-15.66309,6.62478 -32.07043,9.93717 -49.222,9.93717c-17.15046,0 -33.55773,-3.31239 -49.2218,-9.93717c-15.12773,-6.3981 -28.5262,-15.43183 -40.19541,-27.10119c-11.66831,-11.66805 -20.70184,-25.06632 -27.1006,-40.19482c-6.62478,-15.66375 -9.93717,-32.07108 -9.93717,-49.222z" data-paper-data="{&quot;isBaseLogoContainer&quot;:true}"></path></g></g></g></svg>